<svg width="139" height="25" viewBox="0 0 139 25" fill="none" xmlns="http://www.w3.org/2000/svg">
<path d="M7.118 19.512L6.161 16.575L5.105 13.176H4.94V24H0.485V1.032H4.676L6.953 7.17L8.504 11.724H8.702L10.286 7.071L12.53 1.032H16.721V24H12.233V13.275H12.101L11.012 16.839L10.121 19.512H7.118ZM19.956 24V1.032H24.444V24H19.956ZM36.1322 11.889V1.032H40.5212V24H36.6932L33.9872 17.301L32.4032 12.945H32.2382V24H27.7832V1.032H31.7102L34.4162 7.698L35.9672 11.889H36.1322ZM50.6339 7.335C50.6339 6.697 50.5239 6.213 50.3039 5.883C50.1059 5.531 49.6549 5.355 48.9509 5.355H48.2579V19.677H48.9509C49.6549 19.677 50.1059 19.512 50.3039 19.182C50.5239 18.852 50.6339 18.357 50.6339 17.697V7.335ZM49.8419 1.032C51.2059 1.032 52.2839 1.274 53.0759 1.758C53.8679 2.22 54.4179 3.012 54.7259 4.134C54.9239 4.838 55.0339 5.938 55.0559 7.434C55.0999 8.908 55.1219 10.591 55.1219 12.483C55.1219 14.375 55.0999 16.025 55.0559 17.433C55.0339 18.841 54.9019 19.897 54.6599 20.601C54.2419 21.899 53.5709 22.79 52.6469 23.274C51.7449 23.758 50.7109 24 49.5449 24H43.8029V1.032H49.8419ZM70.1135 18.39C70.1135 19.292 69.9925 20.106 69.7505 20.832L71.7965 22.35L69.7175 24.924L67.6385 23.472C66.7585 23.956 65.6255 24.198 64.2395 24.198C60.3455 24.198 58.3985 22.262 58.3985 18.39V6.609C58.3985 4.629 58.9155 3.177 59.9495 2.253C60.9835 1.307 62.4135 0.833999 64.2395 0.833999C66.2415 0.833999 67.7155 1.307 68.6615 2.253C69.6295 3.177 70.1135 4.629 70.1135 6.609V18.39ZM65.5595 6.543C65.5595 6.037 65.4275 5.674 65.1635 5.454C64.9215 5.234 64.6135 5.124 64.2395 5.124C63.8655 5.124 63.5465 5.234 63.2825 5.454C63.0185 5.674 62.8865 6.037 62.8865 6.543V18.489C62.8865 19.017 63.0185 19.391 63.2825 19.611C63.5465 19.809 63.8655 19.908 64.2395 19.908C64.6135 19.908 64.9215 19.809 65.1635 19.611C65.4275 19.391 65.5595 19.017 65.5595 18.489V6.543ZM84.775 1.065V18.39C84.775 20.37 84.28 21.833 83.29 22.779C82.3 23.725 80.837 24.198 78.901 24.198C75.007 24.198 73.06 22.262 73.06 18.39V1.065H77.548V18.489C77.548 19.017 77.68 19.391 77.944 19.611C78.208 19.809 78.527 19.908 78.901 19.908C79.275 19.908 79.583 19.809 79.825 19.611C80.089 19.391 80.221 19.017 80.221 18.489V1.065H84.775ZM94.8833 6.444C94.8833 5.938 94.7513 5.575 94.4873 5.355C94.2453 5.135 93.9373 5.025 93.5633 5.025C93.1893 5.025 92.8703 5.135 92.6063 5.355C92.3423 5.575 92.2103 5.938 92.2103 6.444V18.588C92.2103 19.116 92.3423 19.49 92.6063 19.71C92.8703 19.908 93.1893 20.007 93.5633 20.007C93.9373 20.007 94.2453 19.908 94.4873 19.71C94.7513 19.49 94.8833 19.116 94.8833 18.588V6.444ZM99.4373 18.39C99.4373 20.37 98.9423 21.833 97.9523 22.779C96.9623 23.725 95.4993 24.198 93.5633 24.198C89.6693 24.198 87.7223 22.262 87.7223 18.39V6.609C87.7223 4.629 88.2393 3.177 89.2733 2.253C90.3073 1.307 91.7373 0.833999 93.5633 0.833999C95.5653 0.833999 97.0393 1.307 97.9853 2.253C98.9533 3.177 99.4373 4.629 99.4373 6.609V18.39ZM109.084 5.322V24H104.596V5.322H101.065V1.032H112.615V5.322H109.084ZM114.507 24V1.032H125.034V5.322H118.995V10.173H124.275V14.496H118.995V19.677H125.034V24H114.507ZM138.913 17.235C138.913 18.291 138.814 19.248 138.616 20.106C138.44 20.964 138.121 21.701 137.659 22.317C137.219 22.911 136.614 23.373 135.844 23.703C135.074 24.033 134.106 24.198 132.94 24.198C131.884 24.198 130.971 24.044 130.201 23.736C129.453 23.428 128.837 23.01 128.353 22.482C127.891 21.932 127.55 21.305 127.33 20.601C127.11 19.875 127 19.105 127 18.291L131.488 17.433C131.532 18.269 131.653 18.896 131.851 19.314C132.071 19.732 132.467 19.941 133.039 19.941C133.369 19.941 133.622 19.864 133.798 19.71C133.996 19.556 134.139 19.358 134.227 19.116C134.337 18.874 134.403 18.588 134.425 18.258C134.469 17.928 134.491 17.598 134.491 17.268C134.491 16.806 134.458 16.421 134.392 16.113C134.326 15.805 134.205 15.541 134.029 15.321C133.875 15.101 133.655 14.914 133.369 14.76C133.083 14.584 132.731 14.408 132.313 14.232C131.191 13.77 130.289 13.297 129.607 12.813C128.925 12.307 128.397 11.779 128.023 11.229C127.671 10.657 127.44 10.063 127.33 9.447C127.22 8.809 127.165 8.116 127.165 7.368C127.165 6.422 127.275 5.553 127.495 4.761C127.715 3.947 128.056 3.254 128.518 2.682C129.002 2.11 129.618 1.659 130.366 1.329C131.136 0.998999 132.06 0.833999 133.138 0.833999C134.282 0.833999 135.228 1.021 135.976 1.395C136.724 1.747 137.307 2.209 137.725 2.781C138.165 3.331 138.473 3.947 138.649 4.629C138.825 5.311 138.913 5.971 138.913 6.609L134.491 7.566C134.491 7.236 134.469 6.928 134.425 6.642C134.403 6.356 134.337 6.103 134.227 5.883C134.117 5.641 133.963 5.454 133.765 5.322C133.589 5.19 133.336 5.124 133.006 5.124C132.698 5.124 132.456 5.201 132.28 5.355C132.104 5.487 131.961 5.663 131.851 5.883C131.763 6.081 131.697 6.312 131.653 6.576C131.631 6.84 131.62 7.093 131.62 7.335C131.62 7.643 131.642 7.918 131.686 8.16C131.73 8.402 131.84 8.633 132.016 8.853C132.192 9.073 132.445 9.293 132.775 9.513C133.127 9.711 133.611 9.931 134.227 10.173C135.283 10.591 136.119 11.031 136.735 11.493C137.351 11.955 137.813 12.461 138.121 13.011C138.451 13.561 138.66 14.188 138.748 14.892C138.858 15.574 138.913 16.355 138.913 17.235Z" fill="black"/>
</svg>
